<svg width="128" height="128" viewBox="0 0 28 29" fill="none" xmlns="http://www.w3.org/2000/svg">
<g clip-path="url(#clip0_4_238)">
<rect width="28" height="29" rx="2" fill="#000"/>
<path d="M14 28.0566C21.732 28.0566 28 21.7886 28 14.0566C28 6.32465 21.732 0.0566406 14 0.0566406C6.26801 0.0566406 0 6.32465 0 14.0566C0 21.7886 6.26801 28.0566 14 28.0566Z" fill="black"></path>
<path d="M23.2568 24.5597L10.7554 8.45654H8.39999V19.6519H10.2843V10.8495L21.7776 25.6991C22.2962 25.352 22.7903 24.9712 23.2568 24.5597Z" fill="url(#paint0_linear_1283_19387)"></path>
<path d="M19.7556 8.45654H17.8889V19.6565H19.7556V8.45654Z" fill="url(#paint1_linear_1283_19387)"></path>
</g>
<defs>
<linearGradient id="paint0_linear_1283_19387" x1="16.9555" y1="18.1788" x2="22.4778" y2="25.0232" gradientUnits="userSpaceOnUse">
<stop stop-color="white"></stop>
<stop offset="1" stop-color="white" stop-opacity="0"></stop>
</linearGradient>
<linearGradient id="paint1_linear_1283_19387" x1="18.8223" y1="8.45654" x2="18.791" y2="16.6816" gradientUnits="userSpaceOnUse">
<stop stop-color="white"></stop>
<stop offset="1" stop-color="white" stop-opacity="0"></stop>
</linearGradient>
<clipPath id="clip0_4_238">
<rect width="128" height="128" fill="white"/>
</clipPath>
</defs>
</svg>
